<?xml version="1.0"?>
<svg xmlns="http://www.w3.org/2000/svg" height="512px" viewBox="0 0 64 64" width="512px" class=""><g><path d="m53 20v33a2 2 0 0 1 -2 2h-46a2.006 2.006 0 0 1 -2-2v-33z" fill="#ffb655" data-original="#FFB655" class=""/><path d="m37 31v24h-2v-22a2.006 2.006 0 0 1 2-2z" fill="#ffa733" data-original="#FFA733"/><path d="m33 12h20v8h-20z" fill="#ff9811" data-original="#FF9811" class=""/><path d="m47.59 3.89 5.41 8.11h-50l5.41-8.11a1.981 1.981 0 0 1 1.66-.89h35.86a1.981 1.981 0 0 1 1.66.89z" fill="#ffb655" data-original="#FFB655" class=""/><path d="m3 12h20v8h-20z" fill="#ff9811" data-original="#FF9811" class=""/><path d="m33 20v8l-5-4-5 4v-8-8h10z" fill="#e6e7e8" data-original="#E6E7E8" class=""/><path d="m61 31v28a2.006 2.006 0 0 1 -2 2h-20a2.006 2.006 0 0 1 -2-2v-28a2.006 2.006 0 0 1 2-2h20a2 2 0 0 1 1.79 1.11 1.914 1.914 0 0 1 .21.89z" fill="#e0e0e2" data-original="#E0E0E2" class=""/><path d="m60.79 30.11a39.055 39.055 0 0 1 -21.56 30.89h-.23a2.006 2.006 0 0 1 -2-2v-28a2.006 2.006 0 0 1 2-2h20a2 2 0 0 1 1.79 1.11z" fill="#e6e7e8" data-original="#E6E7E8" class=""/><path d="m57 29v6l-2-2-2 2v-6z" fill="#ff5023" data-original="#FF5023" class="active-path" style="fill:#202095" data-old_color="#ff5023"/><path d="m43 44a1 1 0 0 1 -.707-.293l-2-2 1.414-1.414 1.293 1.293 3.293-3.293 1.414 1.414-4 4a1 1 0 0 1 -.707.293z" fill="#ff5023" data-original="#FF5023" class="active-path" style="fill:#202095" data-old_color="#ff5023"/><path d="m43 55a1 1 0 0 1 -.707-.293l-2-2 1.414-1.414 1.293 1.293 3.293-3.293 1.414 1.414-4 4a1 1 0 0 1 -.707.293z" fill="#ff5023" data-original="#FF5023" class="active-path" style="fill:#202095" data-old_color="#ff5023"/><g fill="#bcbec0"><path d="m50 42h8v2h-8z" data-original="#BCBEC0" class="" style="fill:#4949E7" data-old_color="#BCBEC0"/><path d="m50 53h8v2h-8z" data-original="#BCBEC0" class="" style="fill:#4949E7" data-old_color="#BCBEC0"/><path d="m50 49h8v2h-8z" data-original="#BCBEC0" class="" style="fill:#4949E7" data-old_color="#BCBEC0"/><path d="m50 38h2v2h-2z" data-original="#BCBEC0" class="" style="fill:#4949E7" data-old_color="#BCBEC0"/><path d="m54 38h4v2h-4z" data-original="#BCBEC0" class="" style="fill:#4949E7" data-old_color="#BCBEC0"/></g></g> </svg>
